<svg width="162" height="30" viewBox="0 0 162 30" fill="none" xmlns="http://www.w3.org/2000/svg">
<g clip-path="url(#clip0_488_78851)">
<path d="M16.355 -0.00031152C17.0969 -0.0325696 17.8389 -0.00031152 18.6131 -0.00031152C19.0002 -0.00031152 19.3873 -0.0325696 19.7422 0.0319465C20.0325 0.128721 20.1293 0.451301 20.097 0.709366C20.097 10.0642 20.097 19.419 20.097 28.7739C20.097 29.0965 19.8067 29.3868 19.4841 29.3545C18.5808 29.3545 17.6776 29.3545 16.7421 29.3545C16.4518 29.3545 16.1937 29.1287 16.1614 28.8384C16.0647 28.161 16.0647 27.4513 16.0001 26.7416C15.1292 27.7739 14.0646 28.6448 12.8388 29.1932C11 29.9997 8.90321 30.0319 6.96769 29.5158C4.87087 28.9352 3.06438 27.5803 1.83854 25.7739C-0.355053 22.5158 -0.580864 18.0642 1.09659 14.5481C2.06435 12.5481 3.67729 10.9029 5.70959 9.99969C7.45157 9.22549 9.48387 8.96743 11.3549 9.38679C13.1291 9.77388 14.6775 10.8384 15.8711 12.2255C15.8711 8.38678 15.8711 4.54808 15.8711 0.709366C15.8388 0.386785 16.0001 0.0319465 16.355 -0.00031152ZM9.0645 13.1287C7.45157 13.3545 5.99992 14.3545 5.12894 15.7094C4.12891 17.29 3.87084 19.2578 4.25795 21.0965C4.58054 22.6126 5.41926 23.9997 6.67736 24.9029C8.16126 25.9997 10.2258 26.29 11.9678 25.6448C13.1291 25.2255 14.1291 24.419 14.8066 23.3868C15.9679 21.6771 16.2582 19.4513 15.7098 17.4836C15.2904 15.9674 14.2904 14.5803 12.9356 13.8061C11.8065 13.1287 10.4194 12.9029 9.09676 13.0965L9.0645 13.1287Z" fill="#1D1D18"/>
<path d="M128.003 0.645307C128.003 0.354984 128.196 0.0324033 128.519 0.0324033C129.422 0.00014526 130.325 0.0324033 131.229 0.0324033C131.487 0.0324033 131.809 0.00014526 132.035 0.193694C132.196 0.322726 132.229 0.58079 132.229 0.774339C132.229 10.0969 132.229 19.4195 132.229 28.7421C132.261 29.0647 132.035 29.4195 131.68 29.4195C130.745 29.4195 129.777 29.4195 128.841 29.4195C128.519 29.4195 128.293 29.1292 128.293 28.8389C128.229 28.1614 128.196 27.484 128.132 26.8066C127.132 28.0324 125.809 29.0324 124.293 29.5163C122.357 30.1614 120.228 30.0324 118.325 29.3227C116.261 28.5485 114.519 26.9679 113.454 25.0324C111.583 21.5808 111.648 17.1614 113.68 13.8066C114.841 11.8711 116.68 10.355 118.841 9.70982C120.745 9.12918 122.841 9.09692 124.68 9.87111C125.97 10.3872 127.1 11.2582 127.97 12.3227C127.97 8.45176 127.97 4.58079 127.97 0.709823L128.003 0.645307ZM121.164 13.1614C119.68 13.3872 118.325 14.226 117.454 15.4518C116.293 17.0324 115.97 19.1614 116.357 21.0647C116.68 22.6453 117.583 24.1614 118.938 25.0647C120.712 26.2582 123.164 26.355 125.003 25.2582C126.616 24.3227 127.68 22.613 127.97 20.8389C128.39 18.6776 127.745 16.2582 126.132 14.7098C124.841 13.4195 122.938 12.8711 121.164 13.1614Z" fill="#1D1D18"/>
<path d="M52.4527 9.54835C54.4851 8.99996 56.7432 9.06447 58.6142 10.0645C59.711 10.6129 60.6787 11.4516 61.4852 12.4193C61.5175 11.6774 61.5497 10.9677 61.6142 10.2258C61.6142 9.93544 61.84 9.64512 62.1626 9.64512C63.0981 9.64512 64.0659 9.64512 65.0014 9.64512C65.3562 9.64512 65.5821 9.99996 65.5498 10.3225C65.5498 16.4516 65.5498 22.5483 65.5498 28.6774C65.5821 29 65.3562 29.3871 65.0014 29.3548C64.0659 29.3548 63.0981 29.3548 62.1626 29.3548C61.84 29.3548 61.6142 29.0645 61.6142 28.7742C61.5497 28.0967 61.5175 27.4193 61.4529 26.7419C60.4207 28 59.0335 29.0322 57.4529 29.4838C55.5173 30.0645 53.356 29.9354 51.485 29.1612C49.3236 28.2903 47.5494 26.5806 46.5494 24.4838C44.7752 20.8064 45.0978 16.0645 47.6139 12.8064C48.8075 11.2258 50.5172 10.0322 52.4527 9.51609V9.54835ZM54.485 13.1612C53.0011 13.3871 51.614 14.258 50.743 15.4838C49.5495 17.129 49.2591 19.3225 49.743 21.258C50.0979 22.8064 51.0011 24.2258 52.356 25.0967C54.1302 26.258 56.5819 26.3225 58.4206 25.1935C59.969 24.258 61.0013 22.5806 61.3239 20.8064C61.7433 18.6451 61.0981 16.2258 59.4852 14.6774C58.1948 13.3871 56.2915 12.8387 54.5173 13.129L54.485 13.1612Z" fill="#1D1D18"/>
<path d="M78.0017 9.29039C81.2598 8.90329 84.6792 10.2581 86.7438 12.8065C86.9374 13.0646 86.8083 13.4194 86.5825 13.613C86.0018 14.1614 85.4212 14.7097 84.8405 15.2581C84.647 15.4517 84.3244 15.4839 84.1308 15.3226C83.647 14.9355 83.1953 14.4839 82.6469 14.1614C80.6469 12.742 77.7436 12.7097 75.7436 14.1614C74.4855 15.0646 73.6467 16.4839 73.3564 18.0001C72.9371 20.0323 73.3242 22.2904 74.6468 23.9355C75.6468 25.1614 77.1629 25.9033 78.7114 26.0001C80.034 26.0646 81.3888 25.8388 82.5179 25.1291C83.0986 24.7743 83.6147 24.3226 84.0986 23.871C84.3244 23.6452 84.6792 23.613 84.905 23.871C85.518 24.4517 86.1309 25.0323 86.7438 25.6452C86.9696 25.871 87.0019 26.2581 86.7438 26.4839C85.776 27.5807 84.5825 28.4839 83.2599 29.0968C81.163 30.0646 78.7436 30.2259 76.4855 29.6775C74.55 29.1936 72.808 28.0646 71.5177 26.5484C69.1305 23.742 68.4853 19.7097 69.5821 16.2259C70.1951 14.2904 71.3886 12.5807 73.0016 11.3226C74.421 10.2259 76.1307 9.54845 77.9049 9.3549L78.0017 9.29039Z" fill="#1D1D18"/>
<path d="M97.5827 9.35487C99.615 9.03229 101.776 9.32262 103.647 10.2258C105.486 11.1291 107.035 12.5807 108.002 14.3871C109.809 17.6452 109.744 21.9033 107.776 25.0968C106.744 26.8065 105.196 28.1613 103.389 29C101.518 29.871 99.3892 30.0968 97.3891 29.742C95.4214 29.3871 93.5503 28.4194 92.131 27C90.6793 25.5484 89.6793 23.6452 89.3245 21.6129C88.9374 19.5484 89.1309 17.3549 89.9374 15.4194C90.5825 13.871 91.6148 12.4839 92.9052 11.4194C94.26 10.3226 95.873 9.61294 97.5827 9.35487ZM98.2279 13.1613C96.7762 13.3871 95.4214 14.1936 94.5504 15.3549C93.2923 16.9678 92.9374 19.1613 93.3568 21.1613C93.7116 22.7742 94.7117 24.2904 96.131 25.1291C98.0343 26.2904 100.615 26.2581 102.454 25C103.905 24.0323 104.873 22.4194 105.131 20.7097C105.454 18.6129 104.905 16.2904 103.357 14.7742C102.034 13.4516 100.067 12.8387 98.2279 13.1613Z" fill="#1D1D18"/>
<path d="M141.326 10.1937C143.229 9.25817 145.422 9.0001 147.519 9.3872C149.326 9.70978 151.036 10.6453 152.294 12.0001C153.874 13.6775 154.778 15.9356 154.939 18.2259C154.939 19.0001 155.036 19.8066 154.778 20.5807C154.616 21.0001 154.165 21.2259 153.745 21.2259C149.164 21.2259 144.584 21.2259 140.003 21.2259C140.261 22.7743 141.035 24.2582 142.326 25.1937C143.971 26.3872 146.164 26.6453 148.132 26.2582C149.229 26.0324 150.261 25.5162 151.165 24.8388C151.358 24.7098 151.616 24.484 151.874 24.613C152.165 24.8066 152.423 25.0969 152.681 25.3227C152.971 25.613 153.294 25.8711 153.552 26.1936C153.681 26.4195 153.584 26.6775 153.423 26.8711C151.874 28.484 149.777 29.5162 147.552 29.8388C145.455 30.1291 143.261 29.8388 141.358 28.9033C139.68 28.0969 138.229 26.742 137.293 25.1291C135.358 21.8388 135.39 17.5162 137.229 14.1937C138.164 12.5162 139.616 11.0969 141.358 10.2582L141.326 10.1937ZM142.068 14.0969C140.809 15.1291 140.132 16.6775 139.938 18.2582C143.713 18.2582 147.455 18.2582 151.229 18.2582C151.1 16.613 150.358 14.9356 148.971 13.9356C146.971 12.4517 143.971 12.5162 142.068 14.1291V14.0969Z" fill="#1D1D18"/>
<path d="M24.1618 10.2257C24.1618 9.9031 24.4199 9.64504 24.7425 9.64504C25.7747 9.64504 26.7748 9.64504 27.807 9.64504C28.1296 9.64504 28.3877 9.9031 28.3877 10.2257C28.3877 13.8708 28.3877 17.516 28.3877 21.1289C28.3877 22.2257 28.5813 23.387 29.1942 24.3225C29.6781 25.0644 30.42 25.6128 31.291 25.8386C32.6136 26.1934 34.0975 25.9676 35.2911 25.2257C36.2911 24.5805 37.0976 23.6128 37.4847 22.4515C37.6782 21.9354 37.6137 21.3547 37.6137 20.8063C37.6137 17.2579 37.6137 13.7418 37.6137 10.2257C37.6137 9.9031 37.8718 9.61278 38.1944 9.64504C39.2266 9.64504 40.2267 9.64504 41.2589 9.64504C41.646 9.64504 41.9041 9.96762 41.8396 10.3225C41.8396 16.4837 41.8396 22.6128 41.8396 28.7741C41.8396 29.0966 41.5815 29.387 41.2589 29.3547C40.2912 29.3547 39.2912 29.3547 38.3234 29.3547C38.0331 29.3547 37.8073 29.0644 37.8073 28.8063C37.7427 28.0321 37.7105 27.2257 37.646 26.4515C36.9685 27.387 36.1621 28.2579 35.162 28.8708C34.0652 29.5483 32.7749 29.9031 31.4845 29.8708C29.8071 29.8708 28.0651 29.387 26.7748 28.2579C24.8715 26.645 24.2263 24.0644 24.2586 21.6773C24.2586 17.8708 24.2586 14.0321 24.2586 10.2257H24.1618Z" fill="#1D1D18"/>
<path d="M158.165 24.1937C159.132 23.9679 160.197 24.226 160.874 24.9356C162.036 26.0002 162.068 27.9679 161.003 29.0969C160.003 30.226 158.1 30.3227 156.939 29.355C155.907 28.5163 155.584 26.9356 156.229 25.7421C156.616 24.9679 157.358 24.4195 158.165 24.226V24.1937Z" fill="#DA1184"/>
</g>
<defs>
<clipPath id="clip0_488_78851">
<rect width="161.778" height="30" fill="white"/>
</clipPath>
</defs>
</svg>
