<svg width="120" height="24" viewBox="0 0 120 24" fill="none" xmlns="http://www.w3.org/2000/svg">
<g clip-path="url(#clip0_4173_19105)">
<path d="M12.1314 0.873183C12.6818 0.849256 13.2321 0.873183 13.8064 0.873183C14.0936 0.873183 14.3807 0.849256 14.6439 0.897111C14.8593 0.968894 14.931 1.20817 14.9071 1.39959C14.9071 8.33863 14.9071 15.2777 14.9071 22.2167C14.9071 22.456 14.6918 22.6713 14.4525 22.6474C13.7825 22.6474 13.1125 22.6474 12.4186 22.6474C12.2032 22.6474 12.0118 22.4799 11.9879 22.2645C11.9161 21.7621 11.9161 21.2357 11.8682 20.7092C11.2222 21.4749 10.4325 22.121 9.52327 22.5278C8.15936 23.1259 6.60402 23.1499 5.16833 22.767C3.613 22.3363 2.27302 21.3314 1.36375 19.9914C-0.263374 17.5747 -0.430871 14.2727 0.813396 11.6646C1.53124 10.1811 2.72765 8.96075 4.23513 8.29077C5.52726 7.71651 7.03473 7.52508 8.42257 7.83614C9.73862 8.12328 10.8872 8.91289 11.7725 9.94178C11.7725 7.09439 11.7725 4.24699 11.7725 1.39959C11.7486 1.16032 11.8682 0.897111 12.1314 0.873183ZM6.72367 10.6118C5.52725 10.7793 4.45049 11.521 3.80442 12.526C3.06265 13.6984 2.87122 15.158 3.15836 16.5219C3.39764 17.6465 4.01978 18.6754 4.95298 19.3454C6.05368 20.1589 7.58508 20.3743 8.87721 19.8957C9.73862 19.5846 10.4804 18.9865 10.9829 18.2208C11.8443 16.9526 12.0597 15.3016 11.6529 13.842C11.3418 12.7174 10.6 11.6885 9.59505 11.1142C8.75756 10.6118 7.72865 10.4443 6.74759 10.5878L6.72367 10.6118Z" fill="white"/>
<path d="M94.9472 1.35198C94.9472 1.13663 95.0907 0.897353 95.33 0.897353C96 0.873426 96.67 0.897353 97.34 0.897353C97.5314 0.897353 97.7707 0.873426 97.9382 1.01699C98.0578 1.1127 98.0818 1.30412 98.0818 1.44769C98.0818 8.3628 98.0818 15.2779 98.0818 22.193C98.1057 22.4323 97.9382 22.6955 97.675 22.6955C96.981 22.6955 96.2632 22.6955 95.5693 22.6955C95.33 22.6955 95.1625 22.4801 95.1625 22.2648C95.1146 21.7623 95.0907 21.2598 95.0429 20.7573C94.3011 21.6666 93.32 22.4084 92.1954 22.7673C90.7597 23.2458 89.1805 23.1501 87.7687 22.6237C86.2373 22.0494 84.9452 20.877 84.1555 19.4413C82.7677 16.8811 82.8156 13.603 84.323 11.1145C85.1844 9.67882 86.5483 8.55422 88.1515 8.07566C89.5633 7.64496 91.1186 7.62104 92.4825 8.1953C93.4397 8.57815 94.2772 9.22419 94.9232 10.0138C94.9232 7.14248 94.9232 4.27116 94.9232 1.39983L94.9472 1.35198ZM89.8744 10.6359C88.7737 10.8034 87.7687 11.4255 87.1226 12.3348C86.2612 13.5073 86.0219 15.0865 86.3091 16.4982C86.5483 17.6707 87.2183 18.7953 88.2233 19.4652C89.5394 20.3506 91.3579 20.4224 92.7218 19.6088C93.9182 18.9149 94.7079 17.6467 94.9232 16.3307C95.2343 14.7276 94.7557 12.933 93.5593 11.7845C92.6022 10.8273 91.1904 10.4206 89.8744 10.6359Z" fill="white"/>
<path d="M38.9073 7.95604C40.4147 7.54927 42.0897 7.59712 43.4776 8.33888C44.2911 8.74565 45.009 9.36777 45.6072 10.0856C45.6311 9.53527 45.655 9.00886 45.7029 8.45852C45.7029 8.24317 45.8704 8.02782 46.1097 8.02782C46.8036 8.02782 47.5214 8.02782 48.2153 8.02782C48.4786 8.02782 48.6461 8.29103 48.6221 8.5303C48.6221 13.0766 48.6221 17.5989 48.6221 22.1452C48.6461 22.3844 48.4786 22.6716 48.2153 22.6476C47.5214 22.6476 46.8036 22.6476 46.1097 22.6476C45.8704 22.6476 45.7029 22.4323 45.7029 22.217C45.655 21.7145 45.6311 21.212 45.5832 20.7095C44.8175 21.6427 43.7886 22.4084 42.6161 22.7434C41.1804 23.1741 39.5773 23.0783 38.1894 22.5041C36.5862 21.858 35.2702 20.5899 34.5284 19.0346C33.2124 16.3068 33.4516 12.7894 35.318 10.3727C36.2034 9.20028 37.4716 8.31495 38.9073 7.93211V7.95604ZM40.4147 10.6359C39.314 10.8034 38.2851 11.4495 37.6391 12.3587C36.7537 13.579 36.5384 15.2061 36.8973 16.6418C37.1605 17.7903 37.8305 18.8431 38.8355 19.4892C40.1515 20.3506 41.9701 20.3984 43.334 19.561C44.4825 18.8671 45.2482 17.6228 45.4875 16.3068C45.7986 14.7037 45.32 12.9091 44.1236 11.7605C43.1665 10.8034 41.7547 10.3967 40.4387 10.612L40.4147 10.6359Z" fill="white"/>
<path d="M57.8584 7.76474C60.2752 7.4776 62.8116 8.48257 64.343 10.3729C64.4865 10.5643 64.3908 10.8275 64.2233 10.971C63.7926 11.3778 63.3619 11.7846 62.9312 12.1914C62.7876 12.3349 62.5483 12.3589 62.4048 12.2392C62.0459 11.9521 61.7109 11.6171 61.3041 11.3778C59.8205 10.325 57.667 10.3011 56.1834 11.3778C55.2502 12.0478 54.6281 13.1006 54.4128 14.2252C54.1017 15.7327 54.3888 17.4076 55.3699 18.6279C56.1117 19.5372 57.2363 20.0875 58.3848 20.1593C59.3659 20.2071 60.3709 20.0396 61.2084 19.5132C61.6391 19.25 62.0219 18.915 62.3808 18.5801C62.5483 18.4126 62.8116 18.3886 62.9791 18.5801C63.4337 19.0108 63.8883 19.4415 64.343 19.8961C64.5105 20.0636 64.5344 20.3507 64.343 20.5182C63.6251 21.3317 62.7398 22.0017 61.7587 22.4563C60.2034 23.1742 58.4088 23.2938 56.7338 22.887C55.2981 22.5281 54.006 21.6907 53.0488 20.5661C51.2782 18.4843 50.7996 15.4934 51.6132 12.9092C52.0678 11.4735 52.9531 10.2054 54.1495 9.27218C55.2024 8.45864 56.4706 7.95616 57.7866 7.81259L57.8584 7.76474Z" fill="white"/>
<path d="M72.3828 7.81271C73.8903 7.57344 75.4935 7.78879 76.8814 8.45876C78.2453 9.12874 79.3938 10.2055 80.1117 11.5454C81.4516 13.9621 81.4038 17.1206 79.9442 19.4894C79.1785 20.7576 78.0299 21.7626 76.6899 22.3847C75.3021 23.0307 73.7228 23.1982 72.2393 22.935C70.7797 22.6718 69.3918 21.954 68.339 20.9012C67.2622 19.8244 66.5204 18.4127 66.2572 16.9052C65.9701 15.3739 66.1136 13.7468 66.7119 12.3111C67.1904 11.1626 67.9561 10.1337 68.9132 9.34409C69.9182 8.53054 71.1146 8.00413 72.3828 7.81271ZM72.8614 10.6362C71.7846 10.8037 70.7797 11.4019 70.1336 12.2633C69.2004 13.4597 68.9372 15.0867 69.2482 16.5703C69.5115 17.7666 70.2532 18.8912 71.3061 19.5134C72.7178 20.3748 74.6321 20.3508 75.996 19.4176C77.0728 18.6998 77.7906 17.5034 77.982 16.2353C78.2213 14.68 77.8146 12.9572 76.666 11.8326C75.6849 10.8515 74.2253 10.3969 72.8614 10.6362Z" fill="white"/>
<path d="M104.83 8.43477C106.241 7.74087 107.868 7.54945 109.424 7.83658C110.764 8.07586 112.032 8.76976 112.965 9.77472C114.138 11.019 114.808 12.6939 114.927 14.3928C114.927 14.967 114.999 15.5652 114.808 16.1395C114.688 16.4506 114.353 16.618 114.042 16.618C110.644 16.618 107.246 16.618 103.848 16.618C104.04 17.7666 104.614 18.8672 105.571 19.5612C106.792 20.4465 108.419 20.6379 109.878 20.3508C110.692 20.1833 111.458 19.8004 112.128 19.2979C112.271 19.2022 112.463 19.0347 112.654 19.1305C112.869 19.274 113.061 19.4894 113.252 19.6569C113.468 19.8722 113.707 20.0636 113.898 20.3029C113.994 20.4704 113.922 20.6618 113.803 20.8054C112.654 22.0018 111.099 22.7675 109.448 23.0067C107.892 23.2221 106.265 23.0067 104.853 22.3128C103.609 21.7146 102.532 20.7097 101.838 19.5133C100.403 17.0727 100.427 13.8664 101.791 11.4018C102.485 10.1576 103.561 9.10475 104.853 8.48263L104.83 8.43477ZM105.38 11.33C104.447 12.0957 103.944 13.2442 103.801 14.4167C106.6 14.4167 109.376 14.4167 112.175 14.4167C112.08 13.1964 111.529 11.9521 110.5 11.2104C109.017 10.1097 106.792 10.1576 105.38 11.354V11.33Z" fill="white"/>
<path d="M17.9222 8.45864C17.9222 8.21937 18.1137 8.02795 18.3529 8.02795C19.1186 8.02795 19.8604 8.02795 20.6261 8.02795C20.8654 8.02795 21.0568 8.21937 21.0568 8.45864C21.0568 11.1625 21.0568 13.8663 21.0568 16.5462C21.0568 17.3598 21.2004 18.2211 21.655 18.9151C22.014 19.4654 22.5643 19.8722 23.2104 20.0397C24.1914 20.3029 25.2921 20.1354 26.1775 19.585C26.9192 19.1065 27.5174 18.3886 27.8046 17.5272C27.9481 17.1444 27.9003 16.7137 27.9003 16.3069C27.9003 13.6749 27.9003 11.0668 27.9003 8.45864C27.9003 8.21937 28.0917 8.00402 28.331 8.02795C29.0967 8.02795 29.8385 8.02795 30.6042 8.02795C30.8913 8.02795 31.0827 8.26722 31.0349 8.53043C31.0349 13.1006 31.0349 17.6469 31.0349 22.2171C31.0349 22.4564 30.8435 22.6717 30.6042 22.6478C29.8863 22.6478 29.1446 22.6478 28.4267 22.6478C28.2114 22.6478 28.0439 22.4324 28.0439 22.241C27.996 21.6667 27.9721 21.0685 27.9242 20.4943C27.4217 21.1882 26.8235 21.8342 26.0817 22.2889C25.2682 22.7913 24.3111 23.0545 23.3539 23.0306C22.1097 23.0306 20.8175 22.6717 19.8604 21.8342C18.4486 20.6378 17.9701 18.7236 17.994 16.953C17.994 14.1295 17.994 11.2821 17.994 8.45864H17.9222Z" fill="white"/>
<path d="M117.32 18.8192C118.038 18.6517 118.828 18.8431 119.33 19.3695C120.191 20.1591 120.215 21.6187 119.426 22.4562C118.684 23.2937 117.272 23.3654 116.411 22.6476C115.645 22.0255 115.406 20.853 115.884 19.9677C116.171 19.3934 116.722 18.9867 117.32 18.8431V18.8192Z" fill="#DA1184"/>
</g>
<defs>
<clipPath id="clip0_4173_19105">
<rect width="120" height="22.2528" fill="white" transform="translate(0 0.873535)"/>
</clipPath>
</defs>
</svg>
